<svg xmlns="http://www.w3.org/2000/svg" viewBox="0 0 94.65 96.89"><defs><style>.cls-1{fill:#fff;}.cls-1,.cls-3{stroke:#000;stroke-linecap:round;stroke-linejoin:round;stroke-width:2px;}.cls-2{fill:#8700c1;}.cls-3{fill:none;}</style></defs><title>Asset 5</title><g id="Layer_2" data-name="Layer 2"><g id="Layer_1-2" data-name="Layer 1"><rect class="cls-1" x="44.15" y="17.33" width="7.02" height="66.04" transform="translate(48.87 -18.97) rotate(44.43)"/><path class="cls-2" d="M94.26,13.68,85,23.14,73.47,11.86l9.35-9.54A15.12,15.12,0,1,0,94.26,13.68Z"/><circle class="cls-3" cx="15.91" cy="83.2" r="12.69"/><circle class="cls-3" cx="15.91" cy="83.2" r="5.62"/><polyline class="cls-3" points="34.89 40.89 11.34 14.74 14.34 11.95 37.88 38.1"/><path class="cls-2" d="M53,45.17,88.71,83.55a4.07,4.07,0,0,1-.24,5.75l-6.54,6a4.06,4.06,0,0,1-5.74-.24L40.51,56.71a8.51,8.51,0,0,1,.49-12h0A8.51,8.51,0,0,1,53,45.17Z"/><rect class="cls-2" x="34.4" y="33.57" width="8.73" height="17.03" transform="translate(34.08 99.1) rotate(-132.66)"/><polyline class="cls-3" points="11.49 14.63 9.43 16.53 1 5.73 6.13 1 16.13 10.35 14.7 11.67"/></g></g></svg>